<mxfile host="app.diagrams.net" modified="2021-11-01T22:58:43.702Z" agent="5.0 (X11)" etag="kNnPRe906MpF9aczfRzC" version="15.6.5" type="github">
  <diagram id="hpD_e7PActcPWy4PUytE" name="Page-1">
    <mxGraphModel dx="1185" dy="603" grid="1" gridSize="10" guides="1" tooltips="1" connect="1" arrows="1" fold="1" page="1" pageScale="1" pageWidth="850" pageHeight="1100" math="0" shadow="0">
      <root>
        <mxCell id="0" />
        <mxCell id="1" parent="0" />
        <mxCell id="rMNC7y5x-dC26wNGvYcm-26" value="" style="rounded=0;whiteSpace=wrap;html=1;fontColor=default;strokeColor=default;fillColor=default;" vertex="1" parent="1">
          <mxGeometry x="268" y="344" width="125" height="80" as="geometry" />
        </mxCell>
        <mxCell id="rMNC7y5x-dC26wNGvYcm-51" style="edgeStyle=orthogonalEdgeStyle;rounded=0;orthogonalLoop=1;jettySize=auto;html=1;exitX=0.25;exitY=0;exitDx=0;exitDy=0;entryX=0.25;entryY=1;entryDx=0;entryDy=0;labelBackgroundColor=default;fontColor=default;strokeColor=default;" edge="1" parent="1" source="rMNC7y5x-dC26wNGvYcm-22" target="rMNC7y5x-dC26wNGvYcm-18">
          <mxGeometry relative="1" as="geometry" />
        </mxCell>
        <mxCell id="rMNC7y5x-dC26wNGvYcm-22" value="" style="rounded=0;whiteSpace=wrap;html=1;fontColor=default;strokeColor=default;fillColor=default;" vertex="1" parent="1">
          <mxGeometry x="504.71" y="585" width="120" height="80" as="geometry" />
        </mxCell>
        <mxCell id="rMNC7y5x-dC26wNGvYcm-46" style="edgeStyle=orthogonalEdgeStyle;rounded=0;orthogonalLoop=1;jettySize=auto;html=1;exitX=0.5;exitY=1;exitDx=0;exitDy=0;labelBackgroundColor=default;fontColor=default;strokeColor=default;" edge="1" parent="1">
          <mxGeometry relative="1" as="geometry">
            <mxPoint x="580.4200000000001" y="530" as="sourcePoint" />
            <mxPoint x="600.71" y="585" as="targetPoint" />
            <Array as="points">
              <mxPoint x="600.71" y="530" />
              <mxPoint x="600.71" y="585" />
            </Array>
          </mxGeometry>
        </mxCell>
        <mxCell id="rMNC7y5x-dC26wNGvYcm-50" style="edgeStyle=orthogonalEdgeStyle;rounded=0;orthogonalLoop=1;jettySize=auto;html=1;exitX=0.25;exitY=0;exitDx=0;exitDy=0;entryX=0.2;entryY=1.002;entryDx=0;entryDy=0;labelBackgroundColor=default;fontColor=default;strokeColor=default;entryPerimeter=0;" edge="1" parent="1" source="rMNC7y5x-dC26wNGvYcm-18" target="rMNC7y5x-dC26wNGvYcm-15">
          <mxGeometry relative="1" as="geometry">
            <Array as="points">
              <mxPoint x="535" y="442" />
              <mxPoint x="534" y="442" />
              <mxPoint x="534" y="414" />
            </Array>
          </mxGeometry>
        </mxCell>
        <mxCell id="rMNC7y5x-dC26wNGvYcm-18" value="" style="rounded=0;whiteSpace=wrap;html=1;fontColor=default;strokeColor=default;fillColor=default;" vertex="1" parent="1">
          <mxGeometry x="504.42" y="470" width="120" height="60" as="geometry" />
        </mxCell>
        <mxCell id="rMNC7y5x-dC26wNGvYcm-45" style="edgeStyle=orthogonalEdgeStyle;rounded=0;orthogonalLoop=1;jettySize=auto;html=1;exitX=1;exitY=0.25;exitDx=0;exitDy=0;entryX=1;entryY=0.5;entryDx=0;entryDy=0;labelBackgroundColor=default;fontColor=default;strokeColor=default;" edge="1" parent="1" source="rMNC7y5x-dC26wNGvYcm-15" target="rMNC7y5x-dC26wNGvYcm-18">
          <mxGeometry relative="1" as="geometry">
            <Array as="points">
              <mxPoint x="810" y="369" />
              <mxPoint x="810" y="500" />
            </Array>
          </mxGeometry>
        </mxCell>
        <mxCell id="rMNC7y5x-dC26wNGvYcm-48" value="8) findCodeByLabelsAndCredentials" style="edgeLabel;html=1;align=center;verticalAlign=middle;resizable=0;points=[];fontColor=default;labelBackgroundColor=default;" vertex="1" connectable="0" parent="rMNC7y5x-dC26wNGvYcm-45">
          <mxGeometry x="-0.8337" relative="1" as="geometry">
            <mxPoint x="51" y="-8" as="offset" />
          </mxGeometry>
        </mxCell>
        <mxCell id="rMNC7y5x-dC26wNGvYcm-47" style="edgeStyle=orthogonalEdgeStyle;rounded=0;orthogonalLoop=1;jettySize=auto;html=1;exitX=0;exitY=0.5;exitDx=0;exitDy=0;labelBackgroundColor=default;fontColor=default;strokeColor=default;" edge="1" parent="1" source="rMNC7y5x-dC26wNGvYcm-15" target="rMNC7y5x-dC26wNGvYcm-26">
          <mxGeometry relative="1" as="geometry" />
        </mxCell>
        <mxCell id="rMNC7y5x-dC26wNGvYcm-15" value="" style="rounded=0;whiteSpace=wrap;html=1;fontColor=default;strokeColor=default;fillColor=default;" vertex="1" parent="1">
          <mxGeometry x="510.1700000000001" y="354" width="120" height="60" as="geometry" />
        </mxCell>
        <mxCell id="rMNC7y5x-dC26wNGvYcm-39" style="edgeStyle=orthogonalEdgeStyle;rounded=0;orthogonalLoop=1;jettySize=auto;html=1;exitX=1;exitY=0.5;exitDx=0;exitDy=0;entryX=0.5;entryY=0;entryDx=0;entryDy=0;labelBackgroundColor=default;fontColor=default;strokeColor=default;" edge="1" parent="1" source="rMNC7y5x-dC26wNGvYcm-9" target="rMNC7y5x-dC26wNGvYcm-11">
          <mxGeometry relative="1" as="geometry" />
        </mxCell>
        <mxCell id="rMNC7y5x-dC26wNGvYcm-40" value="6) produce" style="edgeLabel;html=1;align=center;verticalAlign=middle;resizable=0;points=[];fontColor=default;labelBackgroundColor=default;" vertex="1" connectable="0" parent="rMNC7y5x-dC26wNGvYcm-39">
          <mxGeometry x="-0.3563" relative="1" as="geometry">
            <mxPoint x="-4" y="-9" as="offset" />
          </mxGeometry>
        </mxCell>
        <mxCell id="rMNC7y5x-dC26wNGvYcm-9" value="" style="rounded=0;whiteSpace=wrap;html=1;fontColor=default;strokeColor=default;fillColor=default;" vertex="1" parent="1">
          <mxGeometry x="537.85" y="30" width="120" height="90" as="geometry" />
        </mxCell>
        <mxCell id="rMNC7y5x-dC26wNGvYcm-28" style="edgeStyle=orthogonalEdgeStyle;rounded=0;orthogonalLoop=1;jettySize=auto;html=1;entryX=0;entryY=0.25;entryDx=0;entryDy=0;fontColor=default;strokeColor=default;labelBackgroundColor=default;" edge="1" parent="1" source="rMNC7y5x-dC26wNGvYcm-1" target="rMNC7y5x-dC26wNGvYcm-3">
          <mxGeometry relative="1" as="geometry">
            <Array as="points">
              <mxPoint x="200" y="180" />
              <mxPoint x="200" y="180" />
            </Array>
          </mxGeometry>
        </mxCell>
        <mxCell id="rMNC7y5x-dC26wNGvYcm-29" value="1) POST(code)" style="edgeLabel;html=1;align=center;verticalAlign=middle;resizable=0;points=[];fontColor=default;labelBackgroundColor=default;" vertex="1" connectable="0" parent="rMNC7y5x-dC26wNGvYcm-28">
          <mxGeometry x="0.119" relative="1" as="geometry">
            <mxPoint x="-5" y="-9" as="offset" />
          </mxGeometry>
        </mxCell>
        <mxCell id="rMNC7y5x-dC26wNGvYcm-30" style="edgeStyle=orthogonalEdgeStyle;rounded=0;orthogonalLoop=1;jettySize=auto;html=1;entryX=0;entryY=0.25;entryDx=0;entryDy=0;labelBackgroundColor=default;fontColor=default;strokeColor=default;" edge="1" parent="1" source="rMNC7y5x-dC26wNGvYcm-1" target="rMNC7y5x-dC26wNGvYcm-26">
          <mxGeometry relative="1" as="geometry">
            <Array as="points">
              <mxPoint x="240" y="230" />
              <mxPoint x="240" y="364" />
            </Array>
          </mxGeometry>
        </mxCell>
        <mxCell id="rMNC7y5x-dC26wNGvYcm-31" value="n) GET(id)" style="edgeLabel;html=1;align=center;verticalAlign=middle;resizable=0;points=[];fontColor=default;" vertex="1" connectable="0" parent="rMNC7y5x-dC26wNGvYcm-30">
          <mxGeometry x="-0.0758" relative="1" as="geometry">
            <mxPoint as="offset" />
          </mxGeometry>
        </mxCell>
        <mxCell id="rMNC7y5x-dC26wNGvYcm-1" value="Actor" style="shape=umlActor;verticalLabelPosition=bottom;verticalAlign=top;html=1;outlineConnect=0;fillColor=default;strokeColor=default;fontColor=default;" vertex="1" parent="1">
          <mxGeometry x="120" y="160" width="60" height="100" as="geometry" />
        </mxCell>
        <mxCell id="rMNC7y5x-dC26wNGvYcm-32" style="edgeStyle=orthogonalEdgeStyle;rounded=0;orthogonalLoop=1;jettySize=auto;html=1;exitX=0;exitY=0.5;exitDx=0;exitDy=0;labelBackgroundColor=default;fontColor=default;strokeColor=default;" edge="1" parent="1">
          <mxGeometry relative="1" as="geometry">
            <mxPoint x="270" y="210" as="sourcePoint" />
            <mxPoint x="180" y="210.0344827586207" as="targetPoint" />
            <Array as="points">
              <mxPoint x="200" y="210" />
              <mxPoint x="200" y="210" />
            </Array>
          </mxGeometry>
        </mxCell>
        <mxCell id="rMNC7y5x-dC26wNGvYcm-33" value="4) transactionID" style="edgeLabel;html=1;align=center;verticalAlign=middle;resizable=0;points=[];fontColor=default;labelBackgroundColor=default;" vertex="1" connectable="0" parent="rMNC7y5x-dC26wNGvYcm-32">
          <mxGeometry x="-0.1425" y="1" relative="1" as="geometry">
            <mxPoint y="-11" as="offset" />
          </mxGeometry>
        </mxCell>
        <mxCell id="rMNC7y5x-dC26wNGvYcm-34" style="edgeStyle=orthogonalEdgeStyle;rounded=0;orthogonalLoop=1;jettySize=auto;html=1;exitX=1;exitY=0.25;exitDx=0;exitDy=0;entryX=0;entryY=0.25;entryDx=0;entryDy=0;labelBackgroundColor=default;fontColor=default;strokeColor=default;" edge="1" parent="1" source="rMNC7y5x-dC26wNGvYcm-3" target="rMNC7y5x-dC26wNGvYcm-6">
          <mxGeometry relative="1" as="geometry">
            <Array as="points">
              <mxPoint x="390" y="180" />
            </Array>
          </mxGeometry>
        </mxCell>
        <mxCell id="rMNC7y5x-dC26wNGvYcm-36" value="2) produce" style="edgeLabel;html=1;align=center;verticalAlign=middle;resizable=0;points=[];fontColor=default;labelBackgroundColor=default;" vertex="1" connectable="0" parent="rMNC7y5x-dC26wNGvYcm-34">
          <mxGeometry x="0.1964" relative="1" as="geometry">
            <mxPoint x="-6" y="-13" as="offset" />
          </mxGeometry>
        </mxCell>
        <mxCell id="rMNC7y5x-dC26wNGvYcm-55" style="edgeStyle=orthogonalEdgeStyle;rounded=0;orthogonalLoop=1;jettySize=auto;html=1;exitX=0.75;exitY=1;exitDx=0;exitDy=0;labelBackgroundColor=default;fontColor=default;strokeColor=default;" edge="1" parent="1" source="rMNC7y5x-dC26wNGvYcm-3" target="rMNC7y5x-dC26wNGvYcm-26">
          <mxGeometry relative="1" as="geometry" />
        </mxCell>
        <mxCell id="rMNC7y5x-dC26wNGvYcm-3" value="" style="whiteSpace=wrap;html=1;aspect=fixed;fontColor=default;strokeColor=default;fillColor=default;" vertex="1" parent="1">
          <mxGeometry x="270" y="160" width="80" height="80" as="geometry" />
        </mxCell>
        <mxCell id="rMNC7y5x-dC26wNGvYcm-2" value="" style="aspect=fixed;html=1;points=[];align=center;image;fontSize=12;image=img/lib/azure2/compute/Azure_Spring_Cloud.svg;fontColor=default;strokeColor=default;fillColor=default;" vertex="1" parent="1">
          <mxGeometry x="286.63" y="160" width="46.75" height="44" as="geometry" />
        </mxCell>
        <mxCell id="rMNC7y5x-dC26wNGvYcm-4" value="REST API" style="text;html=1;align=center;verticalAlign=middle;resizable=0;points=[];autosize=1;strokeColor=none;fillColor=default;fontColor=default;" vertex="1" parent="1">
          <mxGeometry x="275" y="210" width="70" height="20" as="geometry" />
        </mxCell>
        <mxCell id="rMNC7y5x-dC26wNGvYcm-37" style="edgeStyle=orthogonalEdgeStyle;rounded=0;orthogonalLoop=1;jettySize=auto;html=1;exitX=0.5;exitY=0;exitDx=0;exitDy=0;entryX=0;entryY=0.5;entryDx=0;entryDy=0;labelBackgroundColor=default;fontColor=default;strokeColor=default;" edge="1" parent="1" source="rMNC7y5x-dC26wNGvYcm-6" target="rMNC7y5x-dC26wNGvYcm-9">
          <mxGeometry relative="1" as="geometry" />
        </mxCell>
        <mxCell id="rMNC7y5x-dC26wNGvYcm-38" value="5) Event Stream" style="edgeLabel;html=1;align=center;verticalAlign=middle;resizable=0;points=[];fontColor=default;labelBackgroundColor=default;" vertex="1" connectable="0" parent="rMNC7y5x-dC26wNGvYcm-37">
          <mxGeometry x="0.279" y="-1" relative="1" as="geometry">
            <mxPoint x="3" y="-10" as="offset" />
          </mxGeometry>
        </mxCell>
        <mxCell id="rMNC7y5x-dC26wNGvYcm-6" value="" style="whiteSpace=wrap;html=1;aspect=fixed;fontColor=default;strokeColor=default;fillColor=default;" vertex="1" parent="1">
          <mxGeometry x="410" y="152" width="110" height="110" as="geometry" />
        </mxCell>
        <mxCell id="rMNC7y5x-dC26wNGvYcm-7" value="&lt;div&gt;Kafka&lt;/div&gt;&lt;div&gt;topic: usercode&lt;br&gt;&lt;/div&gt;" style="text;html=1;align=center;verticalAlign=middle;resizable=0;points=[];autosize=1;strokeColor=none;fillColor=default;fontColor=default;" vertex="1" parent="1">
          <mxGeometry x="415" y="212" width="100" height="30" as="geometry" />
        </mxCell>
        <mxCell id="rMNC7y5x-dC26wNGvYcm-5" value="" style="aspect=fixed;html=1;points=[];align=center;image;fontSize=12;image=img/lib/azure2/integration/Event_Grid_Topics.svg;fontColor=default;strokeColor=default;fillColor=default;" vertex="1" parent="1">
          <mxGeometry x="442.66" y="167" width="44.67" height="40" as="geometry" />
        </mxCell>
        <mxCell id="rMNC7y5x-dC26wNGvYcm-8" value="" style="sketch=0;outlineConnect=0;fontColor=#232F3E;gradientColor=none;fillColor=#6CAE3E;strokeColor=none;dashed=0;verticalLabelPosition=bottom;verticalAlign=top;align=center;html=1;fontSize=12;fontStyle=0;aspect=fixed;pointerEvents=1;shape=mxgraph.aws4.iot_analytics_pipeline;" vertex="1" parent="1">
          <mxGeometry x="570" y="40" width="55.71" height="30" as="geometry" />
        </mxCell>
        <mxCell id="rMNC7y5x-dC26wNGvYcm-10" value="&lt;div&gt;SPARK&lt;/div&gt;&lt;div&gt;labelling pipeline&lt;br&gt;&lt;/div&gt;" style="text;html=1;align=center;verticalAlign=middle;resizable=0;points=[];autosize=1;strokeColor=none;fillColor=none;fontColor=default;" vertex="1" parent="1">
          <mxGeometry x="547.85" y="80" width="100" height="30" as="geometry" />
        </mxCell>
        <mxCell id="rMNC7y5x-dC26wNGvYcm-43" style="edgeStyle=orthogonalEdgeStyle;rounded=0;orthogonalLoop=1;jettySize=auto;html=1;exitX=0.5;exitY=1;exitDx=0;exitDy=0;labelBackgroundColor=default;fontColor=default;strokeColor=default;" edge="1" parent="1" source="rMNC7y5x-dC26wNGvYcm-11" target="rMNC7y5x-dC26wNGvYcm-15">
          <mxGeometry relative="1" as="geometry" />
        </mxCell>
        <mxCell id="rMNC7y5x-dC26wNGvYcm-49" value="7) Event polling" style="edgeLabel;html=1;align=center;verticalAlign=middle;resizable=0;points=[];fontColor=default;labelBackgroundColor=default;" vertex="1" connectable="0" parent="rMNC7y5x-dC26wNGvYcm-43">
          <mxGeometry x="0.2281" y="1" relative="1" as="geometry">
            <mxPoint x="15" y="-11" as="offset" />
          </mxGeometry>
        </mxCell>
        <mxCell id="rMNC7y5x-dC26wNGvYcm-11" value="" style="whiteSpace=wrap;html=1;aspect=fixed;fontColor=default;strokeColor=default;fillColor=default;" vertex="1" parent="1">
          <mxGeometry x="660" y="140" width="130" height="130" as="geometry" />
        </mxCell>
        <mxCell id="rMNC7y5x-dC26wNGvYcm-12" value="&lt;div&gt;Kafka&lt;/div&gt;&lt;div&gt;topic:labelledcode&lt;/div&gt;" style="text;html=1;align=center;verticalAlign=middle;resizable=0;points=[];autosize=1;strokeColor=none;fillColor=default;fontColor=default;" vertex="1" parent="1">
          <mxGeometry x="670" y="210" width="110" height="30" as="geometry" />
        </mxCell>
        <mxCell id="rMNC7y5x-dC26wNGvYcm-13" value="" style="aspect=fixed;html=1;points=[];align=center;image;fontSize=12;image=img/lib/azure2/integration/Event_Grid_Topics.svg;fontColor=default;strokeColor=default;fillColor=default;" vertex="1" parent="1">
          <mxGeometry x="702.6600000000001" y="165" width="44.67" height="40" as="geometry" />
        </mxCell>
        <mxCell id="rMNC7y5x-dC26wNGvYcm-14" value="" style="aspect=fixed;html=1;points=[];align=center;image;fontSize=12;image=img/lib/azure2/app_services/Search_Services.svg;fontColor=default;strokeColor=default;fillColor=default;" vertex="1" parent="1">
          <mxGeometry x="549.4000000000001" y="357" width="41.54" height="30" as="geometry" />
        </mxCell>
        <mxCell id="rMNC7y5x-dC26wNGvYcm-16" value="Broker-orchestrator" style="text;html=1;align=center;verticalAlign=middle;resizable=0;points=[];autosize=1;strokeColor=none;fillColor=none;fontColor=default;" vertex="1" parent="1">
          <mxGeometry x="507.83000000000004" y="387" width="120" height="20" as="geometry" />
        </mxCell>
        <mxCell id="rMNC7y5x-dC26wNGvYcm-17" value="" style="sketch=0;points=[[0,0,0],[0.25,0,0],[0.5,0,0],[0.75,0,0],[1,0,0],[0,1,0],[0.25,1,0],[0.5,1,0],[0.75,1,0],[1,1,0],[0,0.25,0],[0,0.5,0],[0,0.75,0],[1,0.25,0],[1,0.5,0],[1,0.75,0]];outlineConnect=0;fontColor=default;gradientColor=#F78E04;gradientDirection=north;fillColor=#D05C17;strokeColor=default;dashed=0;verticalLabelPosition=bottom;verticalAlign=top;align=center;html=1;fontSize=12;fontStyle=0;aspect=fixed;shape=mxgraph.aws4.resourceIcon;resIcon=mxgraph.aws4.elastic_load_balancing;" vertex="1" parent="1">
          <mxGeometry x="545.19" y="470" width="30" height="30" as="geometry" />
        </mxCell>
        <mxCell id="rMNC7y5x-dC26wNGvYcm-19" value="Elastic interface" style="text;html=1;align=center;verticalAlign=middle;resizable=0;points=[];autosize=1;strokeColor=none;fillColor=none;fontColor=default;" vertex="1" parent="1">
          <mxGeometry x="512.08" y="505" width="100" height="20" as="geometry" />
        </mxCell>
        <mxCell id="rMNC7y5x-dC26wNGvYcm-20" value="" style="sketch=0;points=[[0,0,0],[0.25,0,0],[0.5,0,0],[0.75,0,0],[1,0,0],[0,1,0],[0.25,1,0],[0.5,1,0],[0.75,1,0],[1,1,0],[0,0.25,0],[0,0.5,0],[0,0.75,0],[1,0.25,0],[1,0.5,0],[1,0.75,0]];outlineConnect=0;fontColor=default;gradientColor=#945DF2;gradientDirection=north;fillColor=#5A30B5;strokeColor=default;dashed=0;verticalLabelPosition=bottom;verticalAlign=top;align=center;html=1;fontSize=12;fontStyle=0;aspect=fixed;shape=mxgraph.aws4.resourceIcon;resIcon=mxgraph.aws4.elasticsearch_service;" vertex="1" parent="1">
          <mxGeometry x="575.48" y="595" width="30" height="30" as="geometry" />
        </mxCell>
        <mxCell id="rMNC7y5x-dC26wNGvYcm-21" value="" style="shape=image;html=1;verticalAlign=top;verticalLabelPosition=bottom;labelBackgroundColor=#ffffff;imageAspect=0;aspect=fixed;image=https://cdn4.iconfinder.com/data/icons/logos-brands-5/24/elasticsearch-128.png;fontColor=default;strokeColor=default;fillColor=default;" vertex="1" parent="1">
          <mxGeometry x="515.48" y="595" width="30" height="30" as="geometry" />
        </mxCell>
        <mxCell id="rMNC7y5x-dC26wNGvYcm-23" value="ElasticSearch" style="text;html=1;align=center;verticalAlign=middle;resizable=0;points=[];autosize=1;strokeColor=none;fillColor=none;fontColor=default;" vertex="1" parent="1">
          <mxGeometry x="512.37" y="635" width="90" height="20" as="geometry" />
        </mxCell>
        <mxCell id="rMNC7y5x-dC26wNGvYcm-24" value="" style="sketch=0;aspect=fixed;html=1;points=[];align=center;image;fontSize=12;image=img/lib/mscae/Cache_Redis_Product.svg;fontColor=default;strokeColor=default;fillColor=default;" vertex="1" parent="1">
          <mxGeometry x="347.29" y="359" width="35.71" height="30" as="geometry" />
        </mxCell>
        <mxCell id="rMNC7y5x-dC26wNGvYcm-25" value="" style="aspect=fixed;html=1;points=[];align=center;image;fontSize=12;image=img/lib/azure2/databases/Cache_Redis.svg;fontColor=default;strokeColor=default;fillColor=default;" vertex="1" parent="1">
          <mxGeometry x="276.08000000000004" y="359" width="36.92" height="30" as="geometry" />
        </mxCell>
        <mxCell id="rMNC7y5x-dC26wNGvYcm-27" value="&lt;div&gt;Redis&lt;/div&gt;&lt;div&gt;TransactionRepository&lt;br&gt;&lt;/div&gt;" style="text;html=1;align=center;verticalAlign=middle;resizable=0;points=[];autosize=1;strokeColor=none;fillColor=none;fontColor=default;" vertex="1" parent="1">
          <mxGeometry x="268" y="389" width="130" height="30" as="geometry" />
        </mxCell>
        <mxCell id="rMNC7y5x-dC26wNGvYcm-52" value="9) query" style="text;html=1;align=center;verticalAlign=middle;resizable=0;points=[];autosize=1;strokeColor=none;fillColor=none;fontColor=default;" vertex="1" parent="1">
          <mxGeometry x="600" y="550" width="60" height="20" as="geometry" />
        </mxCell>
        <mxCell id="rMNC7y5x-dC26wNGvYcm-53" value="10) query results" style="text;html=1;align=center;verticalAlign=middle;resizable=0;points=[];autosize=1;strokeColor=none;fillColor=none;fontColor=default;" vertex="1" parent="1">
          <mxGeometry x="430" y="550" width="100" height="20" as="geometry" />
        </mxCell>
        <mxCell id="rMNC7y5x-dC26wNGvYcm-54" value="11) DTO results" style="text;html=1;align=center;verticalAlign=middle;resizable=0;points=[];autosize=1;strokeColor=none;fillColor=none;fontColor=default;" vertex="1" parent="1">
          <mxGeometry x="433" y="433" width="100" height="20" as="geometry" />
        </mxCell>
        <mxCell id="rMNC7y5x-dC26wNGvYcm-56" value="3) save(PENDING)" style="text;html=1;align=center;verticalAlign=middle;resizable=0;points=[];autosize=1;strokeColor=none;fillColor=none;fontColor=default;" vertex="1" parent="1">
          <mxGeometry x="324" y="270" width="120" height="20" as="geometry" />
        </mxCell>
        <mxCell id="rMNC7y5x-dC26wNGvYcm-57" value="12) save(FINISHED)" style="text;html=1;align=center;verticalAlign=middle;resizable=0;points=[];autosize=1;strokeColor=none;fillColor=none;fontColor=default;" vertex="1" parent="1">
          <mxGeometry x="386" y="365" width="130" height="20" as="geometry" />
        </mxCell>
        <mxCell id="rMNC7y5x-dC26wNGvYcm-60" value="" style="shape=image;html=1;verticalAlign=top;verticalLabelPosition=bottom;labelBackgroundColor=#ffffff;imageAspect=0;aspect=fixed;image=https://cdn3.iconfinder.com/data/icons/google-material-design-icons/48/ic_loop_48px-128.png;fontColor=default;strokeColor=default;fillColor=none;gradientColor=none;" vertex="1" parent="1">
          <mxGeometry x="180" y="230" width="28" height="28" as="geometry" />
        </mxCell>
      </root>
    </mxGraphModel>
  </diagram>
</mxfile>
